<svg xmlns="http://www.w3.org/2000/svg" enable-background="new 0 0 500 500" viewBox="0 0 500 500"><circle cx="250.163" cy="250.673" r="202.02" fill="none" stroke="#474747" stroke-linecap="round" stroke-linejoin="round" stroke-miterlimit="10" stroke-width="30"/><path fill="#474747" d="M172.673,198.135c0-9.815,3.15-19.76,9.454-29.834c6.301-10.074,15.498-18.416,27.587-25.029    c12.088-6.611,26.191-9.919,42.31-9.919c14.98,0,28.207,2.766,39.675,8.292c11.469,5.528,20.327,13.045,26.58,22.55    c6.25,9.507,9.376,19.837,9.376,30.996c0,8.783-1.782,16.481-5.347,23.092c-3.564,6.613-7.802,12.321-12.708,17.125    c-4.909,4.805-13.716,12.89-26.424,24.254c-3.514,3.204-6.33,6.02-8.446,8.447c-2.119,2.429-3.695,4.649-4.727,6.664    c-1.034,2.015-1.835,4.029-2.402,6.044c-0.569,2.015-1.421,5.555-2.557,10.616c-1.964,10.747-8.112,16.118-18.443,16.118    c-5.374,0-9.895-1.755-13.561-5.269c-3.668-3.512-5.501-8.73-5.501-15.653c0-8.679,1.341-16.195,4.029-22.55    c2.686-6.354,6.25-11.933,10.694-16.738c4.441-4.804,10.435-10.512,17.978-17.125c6.611-5.785,11.391-10.151,14.336-13.096    c2.944-2.945,5.424-6.224,7.439-9.841c2.015-3.615,3.022-7.541,3.022-11.778c0-8.265-3.075-15.239-9.221-20.922    c-6.148-5.681-14.079-8.524-23.79-8.524c-11.367,0-19.736,2.867-25.107,8.601c-5.374,5.734-9.919,14.181-13.638,25.339    c-3.514,11.677-10.178,17.513-19.993,17.513c-5.788,0-10.669-2.039-14.646-6.122C174.661,207.305,172.673,202.888,172.673,198.135    z M248.303,367.993c-6.303,0-11.805-2.042-16.505-6.122c-4.703-4.081-7.052-9.788-7.052-17.125c0-6.509,2.271-11.984,6.819-16.428    c4.545-4.441,10.125-6.664,16.738-6.664c6.509,0,11.984,2.223,16.428,6.664c4.441,4.443,6.664,9.918,6.664,16.428    c0,7.233-2.325,12.917-6.974,17.048S254.398,367.993,248.303,367.993z"/></svg>